<?xml version="1.0" standalone="no"?>
<!DOCTYPE svg PUBLIC "-//W3C//DTD SVG 20010904//EN"
 "http://www.w3.org/TR/2001/REC-SVG-20010904/DTD/svg10.dtd">
<svg version="1.0" xmlns="http://www.w3.org/2000/svg"
 width="700.000000pt" height="700.000000pt" viewBox="0 0 700.000000 700.000000"
 preserveAspectRatio="xMidYMid meet">
<metadata>
Created by potrace 1.14, written by Peter Selinger 2001-2017
</metadata>
<g transform="translate(0.000000,700.000000) scale(0.100000,-0.100000)"
fill="#000000" stroke="none">
<path d="M1374 6039 c-52 -15 -127 -71 -159 -119 -21 -31 -39 -81 -57 -160
-205 -877 -1058 -4629 -1058 -4653 0 -47 39 -108 85 -134 l40 -23 2692 0
c2682 0 2692 0 2747 20 65 25 135 95 159 160 10 25 47 176 83 335 36 160 274
1212 530 2338 255 1127 464 2065 464 2085 0 54 -37 111 -89 139 l-44 23 -2681
-1 c-1575 0 -2694 -5 -2712 -10z m321 -1410 c22 -6 49 -19 60 -28 38 -29 905
-971 925 -1004 25 -40 26 -116 3 -164 -11 -24 -52 -62 -132 -121 -247 -183
-1247 -906 -1278 -925 -81 -47 -201 -9 -242 76 -26 53 -26 99 -1 154 21 48 -5
27 758 583 l472 344 -34 35 c-162 170 -713 772 -727 796 -23 36 -25 124 -5
163 20 39 59 72 103 87 47 17 49 17 98 4z m3676 2 c147 -12 232 -33 336 -82
256 -122 341 -385 238 -744 -115 -401 -408 -658 -822 -720 -65 -10 -176 -15
-329 -15 l-231 0 -74 -322 c-90 -397 -79 -378 -227 -378 -100 0 -100 0 -126
31 -16 19 -26 43 -26 62 0 35 463 2054 481 2100 13 32 53 63 89 70 46 8 574 7
691 -2z m-1444 -282 c59 -22 112 -100 113 -165 0 -97 -75 -210 -174 -262 -74
-38 -175 -38 -233 0 -78 51 -100 161 -54 260 27 56 105 132 164 158 47 22 139
26 184 9z m-279 -1293 c17 -9 44 -33 59 -53 25 -33 28 -45 28 -112 0 -65 -4
-83 -27 -122 -51 -86 -132 -144 -220 -158 -133 -21 -228 54 -228 181 0 118 97
236 230 279 36 12 122 3 158 -15z m-653 -336 c107 -52 114 -208 13 -270 -32
-19 -52 -20 -437 -20 -403 0 -405 0 -438 23 -75 50 -92 152 -38 223 48 63 50
63 474 64 365 0 387 -1 426 -20z"/>
<path d="M4747 3863 c-59 -258 -108 -474 -107 -482 0 -11 41 -12 238 -8 199 4
249 8 315 25 174 47 307 154 377 305 90 193 87 390 -9 499 -91 102 -187 128
-492 128 l-215 0 -107 -467z"/>
</g>
</svg>
