<svg xmlns="http://www.w3.org/2000/svg" version="1.1" xmlns:xlink="http://www.w3.org/1999/xlink" xmlns:svgjs="http://svgjs.com/svgjs" width="100%" height="100%"><svg width="100%" height="100%" viewBox="0 0 512 512" version="1.1" xmlns="http://www.w3.org/2000/svg" xmlns:xlink="http://www.w3.org/1999/xlink" xml:space="preserve" xmlns:serif="http://www.serif.com/" style="fill-rule:evenodd;clip-rule:evenodd;stroke-linejoin:round;stroke-miterlimit:2;">
    <g id="SvgjsG1006" transform="matrix(1.3554,0,0,1.35545,8.09328,69.3474)">
        <path d="M366.267,11.407C366.895,8.64 366.229,5.737 364.458,3.519C362.687,1.302 360.003,0.01 357.165,0.01C308.577,0.01 122.749,0.01 72.558,0.01C65.21,0.01 58.838,5.089 57.2,12.251C46.684,58.217 9.642,220.14 -0.447,264.239C-1.066,266.947 -0.418,269.79 1.313,271.962C3.045,274.135 5.672,275.4 8.45,275.4C56.783,275.4 243.925,275.4 294.005,275.4C301.248,275.4 307.527,270.386 309.129,263.322C319.486,217.659 356.176,55.896 366.267,11.407Z" style="fill:url(#_Linear1);"></path>
    </g>
    <g id="SvgjsG1005" transform="matrix(1.3554,0,0,1.3554,3.99457,69.3614)">
        <g id="SvgjsG1004" transform="matrix(1.01919,0,0,1.01919,83.1947,-11.7442)">
            <path d="M194.67,86.54C204.319,86.54 212.22,88.12 218.374,91.279C224.529,94.439 228.694,99.066 230.87,105.16C233.046,111.253 233.144,118.588 231.164,127.165C229.106,136.08 225.552,143.711 220.504,150.059C215.456,156.406 209.109,161.231 201.463,164.531C193.817,167.832 185.17,169.483 175.522,169.483L157.071,169.483C157.071,169.483 151.761,192.484 149.487,202.332C148.894,204.902 146.605,206.722 143.968,206.722C142.229,206.722 140.202,206.722 138.295,206.722C136.659,206.722 135.113,205.976 134.094,204.696C133.076,203.415 132.697,201.74 133.065,200.146C138.03,178.641 153.718,110.686 158.129,91.581C158.81,88.63 161.438,86.54 164.466,86.54C174.289,86.54 194.67,86.54 194.67,86.54ZM179.234,153.402C188.149,153.402 195.556,151.258 201.455,146.97C207.354,142.681 211.202,136.644 213,128.858C214.927,120.507 213.965,114.046 210.111,109.476C206.257,104.906 199.873,102.621 190.958,102.621L172.507,102.621L160.784,153.402L179.234,153.402Z" style="fill:white;fill-rule:nonzero;"></path>
        </g>
        <g id="SvgjsG1003" transform="matrix(1.01919,0,0,1.01919,-95.5698,-11.7442)">
            <path d="M288.989,125.98C286.732,125.98 284.775,125.416 283.117,124.287C281.459,123.159 280.288,121.635 279.602,119.717C278.916,117.799 278.834,115.711 279.355,113.454C279.876,111.197 280.922,109.109 282.494,107.191C284.065,105.273 285.94,103.749 288.119,102.621C290.298,101.492 292.516,100.928 294.773,100.928C297.03,100.928 298.987,101.492 300.645,102.621C302.303,103.749 303.475,105.273 304.161,107.191C304.846,109.109 304.928,111.197 304.407,113.454C303.886,115.711 302.84,117.799 301.269,119.717C299.697,121.635 297.822,123.159 295.643,124.287C293.464,125.416 291.246,125.98 288.989,125.98ZM273.28,194.027C271.023,194.027 269.065,193.463 267.407,192.334C265.749,191.206 264.578,189.682 263.892,187.764C263.207,185.845 263.124,183.758 263.645,181.501C264.166,179.244 265.213,177.156 266.784,175.238C268.355,173.319 270.231,171.796 272.409,170.667C274.588,169.539 276.806,168.975 279.063,168.975C281.32,168.975 283.278,169.539 284.935,170.667C286.593,171.796 287.765,173.319 288.451,175.238C289.136,177.156 289.218,179.244 288.697,181.501C288.176,183.758 287.13,185.845 285.559,187.764C283.987,189.682 282.112,191.206 279.933,192.334C277.754,193.463 275.536,194.027 273.28,194.027Z" style="fill:white;fill-rule:nonzero;"></path>
        </g>
        <g id="SvgjsG1002" transform="matrix(0.618334,0,0,0.561948,0.805318,61.3374)">
            <path d="M263,224C263,215.72 256.891,208.999 249.367,208.999L187.52,208.999C179.996,208.999 173.887,215.72 173.887,224C173.887,232.279 179.996,239 187.52,239L249.367,239C256.891,239 263,232.279 263,224Z" style="fill:white;"></path>
        </g>
        <g id="SvgjsG1001" transform="matrix(0.56634,0,0,0.56634,14.5145,60.9672)">
            <path d="M184.583,131.34L72.478,213.033C64.93,218.533 63.268,229.127 68.768,236.675C74.268,244.223 84.862,245.885 92.41,240.385C92.41,240.385 218.896,148.821 221.384,146.519C228.149,140.258 228.559,129.683 222.298,122.918L138.814,32.703C132.554,25.938 121.978,25.528 115.213,31.789C108.448,38.049 108.038,48.625 114.299,55.39L184.583,131.34Z" style="fill:white;"></path>
        </g>
    </g>
    <defs>
        <linearGradient id="SvgjsLinearGradient1000" x1="0" y1="0" x2="1" y2="0" gradientUnits="userSpaceOnUse" gradientTransform="matrix(180,163.994,-164,179.993,86,52.0084)"><stop offset="0" style="stop-color:rgb(45,70,100);stop-opacity:1"></stop><stop offset="1" style="stop-color:black;stop-opacity:1"></stop></linearGradient>
    </defs>
</svg><style>@media (prefers-color-scheme: light) { :root { filter: none; } }
@media (prefers-color-scheme: dark) { :root { filter: invert(100%); } }
</style></svg>