<?xml version="1.0" encoding="UTF-8" standalone="no"?>
<!DOCTYPE svg PUBLIC "-//W3C//DTD SVG 1.1//EN" "http://www.w3.org/Graphics/SVG/1.1/DTD/svg11.dtd">
<svg width="100%" height="100%" viewBox="0 0 415 308" version="1.1" xmlns="http://www.w3.org/2000/svg" xmlns:xlink="http://www.w3.org/1999/xlink" xml:space="preserve" xmlns:serif="http://www.serif.com/" style="fill-rule:evenodd;clip-rule:evenodd;stroke-linejoin:round;stroke-miterlimit:2;">
    <path id="Rectangle" d="M411.138,15.448C411.989,11.697 411.087,7.762 408.686,4.756C406.286,1.75 402.648,0 398.802,-0L87.27,0C77.311,-0 68.675,6.884 66.454,16.592C54.122,70.499 15.299,240.213 3.461,291.962C2.621,295.633 3.499,299.486 5.846,302.431C8.193,305.376 11.754,307.091 15.52,307.091L328.206,307.091C338.023,307.091 346.533,300.295 348.705,290.72C360.851,237.168 399.3,67.644 411.138,15.448Z" style="fill:url(#_Linear1);"/>
    <g id="Letters">
        <path id="P" d="M313.978,85.254C324.943,85.254 333.922,87.049 340.916,90.64C347.91,94.231 352.644,99.489 355.117,106.415C357.59,113.34 357.701,121.676 355.451,131.423C353.112,141.554 349.074,150.227 343.336,157.441C337.599,164.655 330.386,170.137 321.697,173.889C313.008,177.64 303.181,179.515 292.216,179.515L271.247,179.515C271.247,179.515 265.578,204.07 262.877,215.773C262.057,219.323 258.896,221.837 255.253,221.837C254.073,221.837 252.814,221.837 251.562,221.837C249.302,221.837 247.166,220.806 245.759,219.038C244.352,217.269 243.828,214.955 244.337,212.753C250.24,187.183 266.909,114.979 272.164,92.217C273.106,88.141 276.735,85.254 280.919,85.254C292.473,85.254 313.978,85.254 313.978,85.254ZM296.435,161.24C306.566,161.24 314.984,158.804 321.688,153.93C328.392,149.057 332.765,142.196 334.808,133.347C336.999,123.856 335.905,116.514 331.525,111.32C327.145,106.126 319.89,103.529 309.758,103.529L288.79,103.529L275.466,161.24L296.435,161.24Z" style="fill:white;fill-rule:nonzero;"/>
        <g id="Colon">
            <path d="M221.833,130.076C219.268,130.076 217.043,129.435 215.159,128.153C213.275,126.87 211.943,125.139 211.164,122.959C210.385,120.778 210.291,118.406 210.884,115.841C211.476,113.276 212.665,110.903 214.451,108.723C216.236,106.543 218.367,104.812 220.844,103.529C223.32,102.247 225.841,101.605 228.406,101.605C230.97,101.605 233.195,102.247 235.079,103.529C236.963,104.812 238.295,106.543 239.074,108.723C239.853,110.903 239.947,113.276 239.354,115.841C238.762,118.406 237.573,120.778 235.788,122.959C234.002,125.139 231.871,126.87 229.394,128.153C226.918,129.435 224.397,130.076 221.833,130.076ZM203.979,207.409C201.414,207.409 199.189,206.768 197.305,205.486C195.421,204.203 194.089,202.472 193.31,200.292C192.531,198.111 192.438,195.739 193.03,193.174C193.622,190.609 194.811,188.236 196.597,186.056C198.383,183.876 200.514,182.145 202.99,180.862C205.466,179.58 207.987,178.938 210.552,178.938C213.117,178.938 215.341,179.58 217.225,180.862C219.11,182.145 220.441,183.876 221.22,186.056C221.999,188.236 222.093,190.609 221.501,193.174C220.909,195.739 219.72,198.111 217.934,200.292C216.148,202.472 214.017,204.203 211.541,205.486C209.064,206.768 206.544,207.409 203.979,207.409Z" style="fill:white;fill-rule:nonzero;"/>
        </g>
        <path id="Underscore" d="M182.206,208.757C182.206,203.569 177.995,199.357 172.807,199.357L130.164,199.357C124.976,199.357 120.764,203.569 120.764,208.757C120.764,213.944 124.976,218.156 130.164,218.156L172.807,218.156C177.995,218.156 182.206,213.944 182.206,208.757Z" style="fill:white;"/>
        <path id="Arrow" d="M132.724,150.926L61.929,202.515C57.162,205.989 56.112,212.679 59.586,217.445C63.059,222.212 69.749,223.262 74.516,219.788C74.516,219.788 154.393,161.965 155.964,160.511C160.236,156.557 160.495,149.879 156.542,145.607L103.82,88.635C99.867,84.363 93.189,84.104 88.916,88.058C84.644,92.011 84.385,98.69 88.339,102.962L132.724,150.926Z" style="fill:white;"/>
    </g>
    <defs>
        <linearGradient id="_Linear1" x1="0" y1="0" x2="1" y2="0" gradientUnits="userSpaceOnUse" gradientTransform="matrix(200.713,182.872,-182.872,200.713,99.2414,57.9838)"><stop offset="0" style="stop-color:rgb(45,70,100);stop-opacity:1"/><stop offset="1" style="stop-color:black;stop-opacity:1"/></linearGradient>
    </defs>
</svg>
